<svg width="20" height="20" viewBox="0 0 20 20" fill="none" xmlns="http://www.w3.org/2000/svg">
<path d="M15.8332 3.33337H4.1665C3.50346 3.33337 2.86758 3.59677 2.39874 4.06561C1.9299 4.53445 1.6665 5.17033 1.6665 5.83337V14.1667C1.6665 14.8297 1.9299 15.4656 2.39874 15.9345C2.86758 16.4033 3.50346 16.6667 4.1665 16.6667H15.8332C16.4962 16.6667 17.1321 16.4033 17.6009 15.9345C18.0698 15.4656 18.3332 14.8297 18.3332 14.1667V5.83337C18.3332 5.17033 18.0698 4.53445 17.6009 4.06561C17.1321 3.59677 16.4962 3.33337 15.8332 3.33337ZM15.2748 5.00004L9.99984 8.95837L4.72484 5.00004H15.2748ZM15.8332 15H4.1665C3.94549 15 3.73353 14.9122 3.57725 14.756C3.42097 14.5997 3.33317 14.3877 3.33317 14.1667V6.04171L9.49984 10.6667C9.64408 10.7749 9.81953 10.8334 9.99984 10.8334C10.1801 10.8334 10.3556 10.7749 10.4998 10.6667L16.6665 6.04171V14.1667C16.6665 14.3877 16.5787 14.5997 16.4224 14.756C16.2661 14.9122 16.0542 15 15.8332 15Z" fill="white"/>
</svg>
