<svg width="20" height="20" viewBox="0 0 20 20" fill="none" xmlns="http://www.w3.org/2000/svg">
<path d="M15.8332 3.33331H4.1665C3.50346 3.33331 2.86758 3.59671 2.39874 4.06555C1.9299 4.53439 1.6665 5.17027 1.6665 5.83331V14.1666C1.6665 14.8297 1.9299 15.4656 2.39874 15.9344C2.86758 16.4033 3.50346 16.6666 4.1665 16.6666H15.8332C16.4962 16.6666 17.1321 16.4033 17.6009 15.9344C18.0698 15.4656 18.3332 14.8297 18.3332 14.1666V5.83331C18.3332 5.17027 18.0698 4.53439 17.6009 4.06555C17.1321 3.59671 16.4962 3.33331 15.8332 3.33331ZM15.2748 4.99998L9.99984 8.95831L4.72484 4.99998H15.2748ZM15.8332 15H4.1665C3.94549 15 3.73353 14.9122 3.57725 14.7559C3.42097 14.5996 3.33317 14.3877 3.33317 14.1666V6.04165L9.49984 10.6666C9.64408 10.7748 9.81953 10.8333 9.99984 10.8333C10.1801 10.8333 10.3556 10.7748 10.4998 10.6666L16.6665 6.04165V14.1666C16.6665 14.3877 16.5787 14.5996 16.4224 14.7559C16.2661 14.9122 16.0542 15 15.8332 15Z" fill="black"/>
</svg>
