<svg width="20" height="20" viewBox="0 0 20 20" fill="none" xmlns="http://www.w3.org/2000/svg">
<path d="M16.5167 7.5H14.9167C14.9208 7.55548 14.9208 7.61118 14.9167 7.66667C14.7818 8.31554 14.5604 8.94336 14.2584 9.53333C13.4516 11.0643 12.4239 12.4682 11.2084 13.7L10.0001 14.8417L8.82507 13.6833C7.6034 12.4549 6.57253 11.0504 5.76673 9.51667C5.46332 8.92439 5.24185 8.29361 5.1084 7.64167C5.09681 7.59508 5.08846 7.54774 5.0834 7.5H3.4834L1.4834 17.5H18.5167L16.5167 7.5Z" fill="black"/>
<path d="M6 6.16667C6.00212 6.44684 6.03283 6.72607 6.09167 7C6.21513 7.57905 6.41405 8.13939 6.68333 8.66667C7.45135 10.1086 8.42549 11.4308 9.575 12.5917L10.1667 13.175L10.7583 12.5917C11.9078 11.4308 12.882 10.1086 13.65 8.66667C13.9193 8.13939 14.1182 7.57905 14.2417 7C14.3005 6.72607 14.3312 6.44684 14.3333 6.16667C14.3333 5.0616 13.8943 4.00179 13.1129 3.22039C12.3315 2.43899 11.2717 2 10.1667 2C9.0616 2 8.00179 2.43899 7.22039 3.22039C6.43899 4.00179 6 5.0616 6 6.16667ZM11 7H9.33333V5.33333H11V7Z" fill="black"/>
</svg>
