<svg width="24" height="24" viewBox="0 0 24 24" fill="none" xmlns="http://www.w3.org/2000/svg">
<path fill-rule="evenodd" clip-rule="evenodd" d="M9.84137 7.22411C9.64178 6.69335 9.41124 6.73122 9.25778 6.72541C9.10417 6.71974 8.96968 6.72255 8.76217 6.72593C8.58657 6.72879 8.29895 6.77402 8.04817 7.02654C7.79706 7.27863 7.09351 7.88491 7.04485 9.1699C6.99653 10.4546 7.89235 11.7313 8.01746 11.91C8.14248 12.0893 9.72812 14.8742 12.3637 16.0195C14.9995 17.1645 15.0133 16.8155 15.4968 16.7899C15.9808 16.7646 17.0777 16.2159 17.3202 15.6146C17.5626 15.0133 17.5821 14.4906 17.5204 14.3791C17.4587 14.2679 17.286 14.1957 17.0277 14.0556C16.7692 13.9152 15.4998 13.2354 15.2618 13.1392C15.0236 13.0434 14.8499 12.9935 14.6645 13.2484C14.479 13.5026 13.9524 14.0719 13.7928 14.2406C13.6325 14.4094 13.4783 14.4251 13.2197 14.2842C12.9619 14.1442 12.1241 13.8367 11.1527 12.91C10.3967 12.1891 9.90057 11.3142 9.75676 11.0474C9.6129 10.7803 9.75582 10.6441 9.8927 10.5191C10.0154 10.4063 10.1672 10.2238 10.3048 10.0762C10.4417 9.92866 10.4899 9.82169 10.5842 9.65046C10.6783 9.4796 10.6405 9.32552 10.5795 9.19244C10.5184 9.05941 10.0409 7.75488 9.84137 7.22411V7.22411Z" fill="black"/>
<path d="M12.1904 3C14.5458 3 16.7597 3.90947 18.4239 5.56088C20.0851 7.20919 21 9.39998 21 11.7296C21 14.059 20.0851 16.2498 18.4239 17.8982C16.7595 19.5497 14.5457 20.4593 12.1904 20.4593C10.6995 20.4593 9.22603 20.0832 7.92919 19.3718L7.36589 19.0627L6.75356 19.2572L3.873 20.1723L4.7812 17.4934L5.00611 16.8301L4.64184 16.2318C3.81717 14.8772 3.38128 13.3204 3.38128 11.7296C3.38128 9.39998 4.29619 7.20919 5.95739 5.56083C7.62169 3.90947 9.83527 3 12.1904 3ZM12.1904 1.5C6.49711 1.5 1.88128 6.07973 1.88128 11.7296C1.88128 13.6622 2.42184 15.4698 3.36061 17.0118L1.5 22.5L7.20769 20.6868C8.68463 21.497 10.3832 21.9592 12.1904 21.9592C17.8845 21.9592 22.5 17.3789 22.5 11.7296C22.5 6.07973 17.8845 1.5 12.1904 1.5Z" fill="black"/>
</svg>
